<?xml version="1.0" encoding="UTF-8" standalone="no"?>
<svg
   xmlns:dc="http://purl.org/dc/elements/1.1/"
   xmlns:cc="http://creativecommons.org/ns#"
   xmlns:rdf="http://www.w3.org/1999/02/22-rdf-syntax-ns#"
   xmlns:svg="http://www.w3.org/2000/svg"
   xmlns="http://www.w3.org/2000/svg"
   xmlns:sodipodi="http://sodipodi.sourceforge.net/DTD/sodipodi-0.dtd"
   xmlns:inkscape="http://www.inkscape.org/namespaces/inkscape"
   width="115"
   height="58"
   viewBox="0 0 115 58"
   fill="none"
   version="1.1"
   id="svg59"
   sodipodi:docname="logo.svg"
   inkscape:version="1.0.1 (0767f8302a, 2020-10-17)">
  <metadata
     id="metadata65">
    <rdf:RDF>
      <cc:Work
         rdf:about="">
        <dc:format>image/svg+xml</dc:format>
        <dc:type
           rdf:resource="http://purl.org/dc/dcmitype/StillImage" />
      </cc:Work>
    </rdf:RDF>
  </metadata>
  <defs
     id="defs63" />
  <path
     id="path22"
     d="m 83.458326,9.0426331 2.26893,-3.9812898 A 1.3518746,1.1974348 0 1 0 83.314721,3.9801624 l -2.268919,3.9812898 a 1.3518729,1.1974333 0 1 0 2.412524,1.0811809 z"
     class="b"
     style="fill:#6c63ff;stroke-width:1.35152" />
  <path
     id="path24"
     d="m 78.863036,17.01793 2.268922,-3.994008 A 1.3498692,1.1956585 0 1 0 78.719424,11.95546 l -2.211484,4.044886 a 1.3355089,1.1829389 0 0 0 0.588767,1.602691 1.3498692,1.1956585 0 0 0 1.766329,-0.585107 z"
     class="b"
     style="fill:#6c63ff;stroke-width:1.35152" />
  <path
     id="path26"
     d="m 81.735088,28.465724 a 4.3080929,3.8159316 0 0 0 2.283295,0.17808 4.6527405,4.1212062 0 0 0 1.306782,-0.381594 5.7441242,5.087909 0 0 0 2.599217,-2.442194 v 0 l 0.114879,-0.241677 a 6.5770222,5.8256556 0 0 0 0.459527,-1.907964 v 0 -0.330716 a 14.891642,13.190403 0 0 1 0.531336,-4.350162 15.422972,13.661036 0 0 1 2.197123,3.917691 1.436031,1.2719772 0 0 0 0.129248,0.317994 v 0 a 6.2180143,5.5076614 0 0 0 1.177542,1.653569 l 0.201047,0.190805 v 0 a 5.6005211,4.9607112 0 0 0 4.796334,1.450054 v 0 a 4.121409,3.6505746 0 0 0 1.522185,-0.534232 4.3080929,3.8159316 0 0 0 1.737627,-1.958845 5.1984324,4.6045576 0 0 0 0.12923,-2.429473 6.9791112,6.1818092 0 0 0 -0.51697,-1.399178 7.7545675,6.8686767 0 0 0 -0.990874,-1.195656 5.6005211,4.9607112 0 0 0 -4.882503,-1.564533 5.0691896,4.4900796 0 0 0 -0.83288,0.203517 L 93.252059,17.819292 90.85388,15.275339 94.156753,5.5828713 V 5.4683754 a 4.0926886,3.625135 0 0 0 0.186688,-0.686867 3.4895554,3.0909048 0 0 0 -0.904687,-2.23868 4.7389024,4.1975249 0 0 0 -0.64623,-0.5342305 L 92.261197,1.6270048 A 0.35900776,0.31799431 0 0 0 91.945277,1.5633998 0.37336805,0.33071408 0 0 0 91.71551,1.7541963 L 87.565374,12.069933 84.506628,8.8772721 82.53927,12.311612 l 3.374671,3.815928 -1.20627,3.014585 a 4.6240198,4.0957665 0 0 0 -1.335501,0 5.6148813,4.9734309 0 0 0 -3.877284,2.760191 5.8159257,5.1515076 0 0 0 0.201041,4.99887 4.4660564,3.9558492 0 0 0 2.039161,1.564531 z m 12.737593,-8.445929 a 1.5221929,1.3482958 0 0 1 0.488262,-0.152635 2.6710177,2.3658776 0 0 1 1.996074,0.546951 3.3603125,2.9764268 0 0 1 1.278056,1.831645 1.809399,1.6026913 0 0 1 -0.516946,1.564535 v 0 A 1.5509135,1.3737353 0 0 1 97.043169,24.090126 2.7284589,2.4167567 0 0 1 95.205063,23.632212 3.4895554,3.0909048 0 0 1 93.769042,21.647929 1.7950388,1.5899716 0 0 1 94.487041,20.0198 Z M 82.51055,26.048968 a 1.7088767,1.5136529 0 0 1 -0.631858,-0.686868 3.1879889,2.8237893 0 0 1 0.100524,-2.264122 2.7428193,2.4294764 0 0 1 1.866831,-1.462771 h 0.100524 a 1.5221929,1.3482958 0 0 1 1.565268,0.839504 3.0731065,2.7220314 0 0 1 0,2.009722 v 0.07634 a 2.8720621,2.5439543 0 0 1 -1.823757,1.615413 H 83.558835 A 1.436031,1.2719772 0 0 1 82.51053,26.048975 Z"
     class="b"
     style="fill:#6c63ff;stroke-width:1.35152" />
  <g
     aria-label="Edita"
     id="text364"
     style="font-style:normal;font-weight:normal;font-size:22.9819px;line-height:1.25;font-family:sans-serif;fill:#444446;fill-opacity:1;stroke:none;stroke-width:0.574546">
    <path
       d="m 4.1402286,22.134941 q -0.229819,0 -0.4136742,-0.160873 Q 3.5426992,21.790213 3.5426992,21.537412 V 6.645141 q 0,-0.2528009 0.1838552,-0.4136742 Q 3.9104096,6.0476116 4.1402286,6.0476116 H 15.401359 q 0.252801,0 0.436656,0.1838552 0.183856,0.1608733 0.183856,0.4136742 v 2.7118641 q 0,0.229819 -0.183856,0.4136742 -0.183855,0.1838552 -0.436656,0.1838552 H 8.2999524 v 2.2752085 h 6.5958046 q 0.252801,0 0.436657,0.183855 0.183855,0.160873 0.183855,0.413674 v 2.482045 q 0,0.252801 -0.183855,0.436656 -0.183856,0.160873 -0.436657,0.160873 H 8.2999524 v 2.321172 h 7.2852616 q 0.252801,0 0.436657,0.183855 0.183855,0.183856 0.183855,0.436657 v 2.688882 q 0,0.252801 -0.183855,0.436656 -0.183856,0.160873 -0.436657,0.160873 z"
       style="font-style:normal;font-variant:normal;font-weight:normal;font-stretch:normal;font-family:rubik;-inkscape-font-specification:rubik;fill:#444446;fill-opacity:1;stroke-width:0.574546"
       id="path1209" />
    <path
       d="m 22.787527,22.36476 q -1.057168,0 -1.93048,-0.321746 -0.873312,-0.321747 -1.516805,-0.988222 -0.643493,-0.666475 -1.011204,-1.677679 -0.36771,-1.011203 -0.436656,-2.367135 -0.02298,-0.505602 -0.02298,-0.873313 0,-0.36771 0.02298,-0.85033 0.04596,-1.286986 0.413674,-2.275208 0.367711,-1.011203 1.011204,-1.677679 0.643493,-0.666475 1.516805,-1.011203 0.896294,-0.3677105 1.953462,-0.3677105 1.034185,0 1.838552,0.3447285 0.804366,0.321747 1.355932,0.873312 V 6.415322 q 0,-0.2528009 0.183855,-0.4136742 0.183855,-0.1838552 0.413674,-0.1838552 h 3.539212 q 0.252801,0 0.413675,0.1838552 0.183855,0.1608733 0.183855,0.4136742 v 15.12209 q 0,0.252801 -0.183855,0.436656 -0.160874,0.160873 -0.413675,0.160873 h -3.240447 q -0.252801,0 -0.436656,-0.160873 -0.183856,-0.183855 -0.183856,-0.436656 v -0.643493 q -0.551565,0.666475 -1.401895,1.080149 -0.827349,0.390692 -2.068371,0.390692 z m 1.562769,-3.585176 q 0.597529,0 0.942258,-0.252801 0.36771,-0.252801 0.505601,-0.666475 0.160874,-0.413674 0.183856,-0.919276 0.04596,-0.505602 0.04596,-0.873312 0,-0.390693 -0.04596,-0.850331 -0.02298,-0.482619 -0.206838,-0.85033 -0.160873,-0.36771 -0.505601,-0.597529 -0.344729,-0.229819 -0.919276,-0.229819 -0.574548,0 -0.919276,0.252801 -0.344729,0.229819 -0.505602,0.666475 -0.137891,0.413674 -0.183855,0.96524 -0.06895,0.73542 0,1.470841 0.04596,0.551566 0.183855,0.988222 0.160873,0.413674 0.505602,0.666475 0.344728,0.229819 0.919276,0.229819 z"
       style="font-style:normal;font-variant:normal;font-weight:normal;font-stretch:normal;font-family:rubik;-inkscape-font-specification:rubik;fill:#444446;fill-opacity:1;stroke-width:0.574546"
       id="path1211" />
    <path
       d="m 33.715061,22.134941 q -0.252801,0 -0.436656,-0.160873 -0.160874,-0.183855 -0.160874,-0.436656 V 10.781883 q 0,-0.252801 0.160874,-0.413674 0.183855,-0.183856 0.436656,-0.183856 h 3.401321 q 0.252801,0 0.436656,0.183856 0.183855,0.160873 0.183855,0.413674 v 10.755529 q 0,0.252801 -0.183855,0.436656 -0.183855,0.160873 -0.436656,0.160873 z M 33.761025,8.69053 q -0.252801,0 -0.436656,-0.1608733 -0.160874,-0.1838552 -0.160874,-0.436656 V 5.6799012 q 0,-0.2528009 0.160874,-0.4366561 0.183855,-0.1838552 0.436656,-0.1838552 h 3.309393 q 0.252801,0 0.436656,0.1838552 0.183855,0.1838552 0.183855,0.4366561 v 2.4130995 q 0,0.2528008 -0.183855,0.436656 Q 37.323219,8.69053 37.070418,8.69053 Z"
       style="font-style:normal;font-variant:normal;font-weight:normal;font-stretch:normal;font-family:rubik;-inkscape-font-specification:rubik;fill:#444446;fill-opacity:1;stroke-width:0.574546"
       id="path1213" />
    <path
       d="m 46.876508,22.134941 q -1.562769,0 -2.757828,-0.459638 -1.172077,-0.459638 -1.838552,-1.493823 -0.643493,-1.057168 -0.643493,-2.78081 v -3.700086 h -1.81557 q -0.252801,0 -0.436656,-0.160873 -0.160873,-0.183855 -0.160873,-0.436656 v -2.321172 q 0,-0.252801 0.160873,-0.413674 0.183855,-0.183856 0.436656,-0.183856 h 1.81557 V 6.415322 q 0,-0.2528009 0.160873,-0.4136742 0.183856,-0.1838552 0.436657,-0.1838552 h 3.332375 q 0.252801,0 0.413674,0.1838552 0.183855,0.1608733 0.183855,0.4136742 v 3.769031 h 2.89572 q 0.252801,0 0.413674,0.183856 0.183855,0.160873 0.183855,0.413674 v 2.321172 q 0,0.252801 -0.183855,0.436656 -0.160873,0.160873 -0.413674,0.160873 h -2.89572 v 3.309394 q 0,0.666475 0.275783,1.057167 0.275783,0.36771 0.873312,0.36771 h 1.93048 q 0.252801,0 0.413674,0.183856 0.183855,0.160873 0.183855,0.413674 v 2.505027 q 0,0.252801 -0.183855,0.436656 -0.160873,0.160873 -0.413674,0.160873 z"
       style="font-style:normal;font-variant:normal;font-weight:normal;font-stretch:normal;font-family:rubik;-inkscape-font-specification:rubik;fill:#444446;fill-opacity:1;stroke-width:0.574546"
       id="path1215" />
    <path
       d="m 55.310863,22.36476 q -1.264004,0 -2.275208,-0.48262 -0.988221,-0.48262 -1.562769,-1.286986 -0.551565,-0.827349 -0.551565,-1.838552 0,-1.654697 1.33295,-2.596955 1.355932,-0.965239 3.608158,-1.33295 l 2.6659,-0.413674 V 14.25215 q 0,-0.712439 -0.229819,-1.057168 -0.229819,-0.36771 -0.919276,-0.36771 -0.48262,0 -0.781384,0.183855 -0.298765,0.183855 -0.551566,0.528584 -0.229819,0.252801 -0.597529,0.252801 h -3.240448 q -0.229819,0 -0.390692,-0.137892 -0.137892,-0.137891 -0.11491,-0.36771 0.02298,-0.413674 0.344729,-0.96524 0.321746,-0.574547 0.988221,-1.103131 0.689457,-0.551566 1.769607,-0.896294 1.080149,-0.3677105 2.596954,-0.3677105 1.539787,0 2.642919,0.3447285 1.103131,0.344728 1.81557,0.96524 0.712439,0.620511 1.057167,1.516805 0.344728,0.873312 0.344728,1.953462 v 6.802642 q 0,0.252801 -0.183855,0.436656 -0.160873,0.160873 -0.413674,0.160873 h -3.332375 q -0.252801,0 -0.436656,-0.160873 -0.183856,-0.183855 -0.183856,-0.436656 v -0.735421 q -0.298764,0.459638 -0.804366,0.804366 -0.48262,0.344729 -1.149095,0.551566 -0.643493,0.206837 -1.44786,0.206837 z m 1.33295,-3.010629 q 0.574548,0 1.011204,-0.229819 0.436656,-0.252801 0.666475,-0.758402 0.252801,-0.505602 0.252801,-1.264005 v -0.160873 l -1.654697,0.321746 q -0.85033,0.160874 -1.195058,0.459638 -0.344729,0.298765 -0.344729,0.689457 0,0.275783 0.160873,0.48262 0.160874,0.206837 0.436656,0.344729 0.298765,0.114909 0.666475,0.114909 z"
       style="font-style:normal;font-variant:normal;font-weight:normal;font-stretch:normal;font-family:rubik;-inkscape-font-specification:rubik;fill:#444446;fill-opacity:1;stroke-width:0.574546"
       id="path1217" />
  </g>
  <path
     d="m 12.217068,53.9002 q -0.735106,0 -1.160694,-0.386898 -0.386898,-0.386898 -0.502967,-0.812486 L 2.9315159,27.939344 q -0.03869,-0.154759 -0.03869,-0.270829 0,-0.348208 0.2321388,-0.580347 0.2708286,-0.270828 0.6190368,-0.270828 h 5.996919 q 0.6964165,0 1.0833145,0.386898 0.386898,0.386898 0.502968,0.773796 l 4.565396,16.133646 4.565396,-16.133646 q 0.11607,-0.386898 0.502968,-0.773796 0.386898,-0.386898 1.083314,-0.386898 h 5.996919 q 0.348208,0 0.580347,0.270828 0.232139,0.232139 0.232139,0.580347 0,0.11607 -0.03869,0.270829 L 21.231791,52.700816 Q 21.115722,53.126404 20.690134,53.513302 20.303236,53.9002 19.56813,53.9002 Z"
     style="font-style:normal;font-variant:normal;font-weight:normal;font-stretch:normal;font-size:38.6898px;line-height:1.25;font-family:rubik;-inkscape-font-specification:rubik;fill:#444446;fill-opacity:1;stroke:none;stroke-width:0.967246"
     id="path1220" />
  <path
     d="m 32.077027,53.9002 q -0.425588,0 -0.735106,-0.270829 -0.270829,-0.309518 -0.270829,-0.735106 V 34.787439 q 0,-0.425588 0.270829,-0.696417 0.309518,-0.309518 0.735106,-0.309518 h 5.72609 q 0.425588,0 0.735107,0.309518 0.309518,0.270829 0.309518,0.696417 v 18.106826 q 0,0.425588 -0.309518,0.735106 -0.309519,0.270829 -0.735107,0.270829 z m 0.07738,-22.633533 q -0.425587,0 -0.735106,-0.270829 -0.270828,-0.309518 -0.270828,-0.735106 v -4.062429 q 0,-0.425588 0.270828,-0.735106 0.309519,-0.309519 0.735106,-0.309519 h 5.571332 q 0.425588,0 0.735106,0.309519 0.309518,0.309518 0.309518,0.735106 v 4.062429 q 0,0.425588 -0.309518,0.735106 -0.309518,0.270829 -0.735106,0.270829 z"
     style="font-style:normal;font-variant:normal;font-weight:normal;font-stretch:normal;font-size:38.6898px;line-height:1.25;font-family:rubik;-inkscape-font-specification:rubik;fill:#444446;fill-opacity:1;stroke:none;stroke-width:0.967246"
     id="path1222" />
  <path
     d="m 50.48128,54.287098 q -1.77973,0 -3.249943,-0.541657 -1.470212,-0.541658 -2.553527,-1.663662 -1.083314,-1.122004 -1.702351,-2.824355 -0.619037,-1.702351 -0.735106,-3.98505 -0.03869,-0.851175 -0.03869,-1.470212 0,-0.619037 0.03869,-1.431523 0.07738,-2.166628 0.696416,-3.83029 0.619037,-1.702351 1.702352,-2.824355 1.083314,-1.122004 2.553526,-1.702351 1.508903,-0.619037 3.288633,-0.619037 1.741041,0 3.095184,0.580347 1.354143,0.541657 2.282699,1.470212 v -8.008788 q 0,-0.425588 0.309518,-0.696417 0.309518,-0.309518 0.696416,-0.309518 h 5.95823 q 0.425587,0 0.696416,0.309518 0.309518,0.270829 0.309518,0.696417 v 25.457888 q 0,0.425588 -0.309518,0.735106 -0.270829,0.270829 -0.696416,0.270829 h -5.455262 q -0.425588,0 -0.735106,-0.270829 -0.309519,-0.309518 -0.309519,-0.735106 v -1.083314 q -0.928555,1.122004 -2.360078,1.81842 -1.392832,0.657727 -3.482082,0.657727 z m 2.630907,-6.035609 q 1.005935,0 1.586282,-0.425588 0.619036,-0.425588 0.851175,-1.122004 0.270829,-0.696416 0.309519,-1.547592 0.07738,-0.851176 0.07738,-1.470212 0,-0.657727 -0.07738,-1.431523 -0.03869,-0.812486 -0.348209,-1.431523 -0.270828,-0.619036 -0.851175,-1.005934 -0.580347,-0.386898 -1.547592,-0.386898 -0.967245,0 -1.547592,0.425587 -0.580347,0.386898 -0.851176,1.122005 -0.232139,0.696416 -0.309518,1.624971 -0.11607,1.238074 0,2.476147 0.07738,0.928556 0.309518,1.663662 0.270829,0.696416 0.851176,1.122004 0.580347,0.386898 1.547592,0.386898 z"
     style="font-style:normal;font-variant:normal;font-weight:normal;font-stretch:normal;font-size:38.6898px;line-height:1.25;font-family:rubik;-inkscape-font-specification:rubik;fill:#444446;fill-opacity:1;stroke:none;stroke-width:0.967246"
     id="path1224" />
  <path
     d="m 77.737641,54.287098 q -4.836225,0 -7.69927,-2.476147 -2.824356,-2.514837 -2.901735,-7.660581 0,-0.154759 0,-0.386898 0,-0.270828 0,-0.386898 0.116069,-3.211253 1.392832,-5.416572 1.315454,-2.244008 3.636842,-3.404702 2.360077,-1.160694 5.532641,-1.160694 3.559462,0 5.88085,1.431522 2.360077,1.392833 3.520771,3.752911 1.160694,2.321388 1.160694,5.223123 v 1.083314 q 0,0.386898 -0.309518,0.696417 -0.309518,0.309518 -0.735106,0.309518 H 75.300183 q 0,0 0,0.07738 0,0.07738 0,0.154759 0,0.928555 0.232139,1.663661 0.270829,0.696417 0.812486,1.122005 0.541657,0.386898 1.315453,0.386898 0.502968,0 0.851176,-0.15476 0.348208,-0.154759 0.619037,-0.386898 0.270828,-0.270828 0.464277,-0.502967 0.348208,-0.348208 0.541657,-0.425588 0.232139,-0.116069 0.696417,-0.116069 h 6.074298 q 0.348209,0 0.580347,0.232139 0.270829,0.232138 0.232139,0.580347 -0.03869,0.696416 -0.657726,1.702351 -0.619037,0.967245 -1.857111,1.8958 -1.199384,0.928555 -3.095184,1.547592 -1.8958,0.619037 -4.371947,0.619037 z M 75.300183,41.558154 h 4.797536 v -0.07738 q 0,-1.044625 -0.270829,-1.779731 -0.270829,-0.735106 -0.812486,-1.083314 -0.541657,-0.386898 -1.315453,-0.386898 -0.773796,0 -1.315453,0.386898 -0.541657,0.348208 -0.812486,1.083314 -0.270829,0.735106 -0.270829,1.779731 z"
     style="font-style:normal;font-variant:normal;font-weight:normal;font-stretch:normal;font-size:38.6898px;line-height:1.25;font-family:rubik;-inkscape-font-specification:rubik;fill:#444446;fill-opacity:1;stroke:none;stroke-width:0.967246"
     id="path1226" />
  <path
     d="m 101.54637,54.287098 q -3.404698,0 -5.764775,-1.005935 -2.321388,-1.005935 -3.559462,-2.940425 -1.238074,-1.97318 -1.392833,-4.720155 -0.03869,-0.812486 -0.03869,-1.779731 0,-0.967245 0.03869,-1.779731 0.154759,-2.785666 1.470213,-4.720156 1.315453,-1.93449 3.636841,-2.940424 2.360078,-1.005935 5.610016,-1.005935 3.24995,0 5.57134,1.005935 2.36007,1.005934 3.67553,2.940424 1.31545,1.93449 1.47021,4.720156 0.0774,0.812486 0.0774,1.779731 0,0.967245 -0.0774,1.779731 -0.15476,2.746975 -1.39283,4.720155 -1.23808,1.93449 -3.59815,2.940425 -2.32139,1.005935 -5.7261,1.005935 z m 0,-5.455262 q 1.43153,0 1.97318,-0.851176 0.54166,-0.851175 0.61904,-2.553526 0.0387,-0.580347 0.0387,-1.586282 0,-1.005935 -0.0387,-1.586282 -0.0774,-1.663661 -0.61904,-2.514837 -0.54165,-0.889865 -1.97318,-0.889865 -1.39283,0 -1.934485,0.889865 -0.541657,0.851176 -0.657727,2.514837 -0.03869,0.580347 -0.03869,1.586282 0,1.005935 0.03869,1.586282 0.11607,1.702351 0.657727,2.553526 0.541655,0.851176 1.934485,0.851176 z"
     style="font-style:normal;font-variant:normal;font-weight:normal;font-stretch:normal;font-size:38.6898px;line-height:1.25;font-family:rubik;-inkscape-font-specification:rubik;fill:#444446;fill-opacity:1;stroke:none;stroke-width:0.967246"
     id="path1228" />
</svg>
